<svg width="28" height="28" viewBox="0 0 28 28" fill="none" xmlns="http://www.w3.org/2000/svg">
<g clip-path="url(#clip0_3777_2309)">
<path d="M3.7604 0.229492H3.75712C2.75848 0.229492 1.81671 0.617771 1.10599 1.32242C0.392928 2.02897 4.52147e-07 2.96648 4.52147e-07 3.96233C-0.000491732 4.98011 0.400857 5.93397 1.12792 6.64703C1.83306 7.33768 2.79484 7.72552 3.72726 7.7031C3.75433 7.70359 3.7814 7.70403 3.80891 7.70403C4.74362 7.70403 5.66904 7.32324 6.35831 6.65124C7.08489 5.94332 7.48624 4.99318 7.48859 3.97584C7.49094 2.98091 7.10173 2.04199 6.39381 1.33127C5.68632 0.62149 4.75111 0.230422 3.7604 0.229492Z" fill="#CDECE0"/>
<path d="M5.60012 8.63721H1.82714C1.07722 8.63721 0.466797 9.26671 0.466797 10.04V26.3704C0.466797 27.1273 1.108 27.7667 1.86679 27.7667H5.60012C6.3589 27.7667 7.00011 27.14 7.00011 26.3989V10.0372C7.00011 9.27841 6.35896 8.63721 5.60012 8.63721Z" fill="#CDECE0"/>
<path d="M21.528 8.1709H20.5447C18.7326 8.1709 16.9943 8.94275 15.8673 10.2177V9.57089C15.8673 9.1084 15.3959 8.63754 14.934 8.63754H10.2673C9.83568 8.63754 9.33398 9.02019 9.33398 9.51347V26.9261C9.33398 27.4212 9.82584 27.7666 10.2673 27.767L15.4007 27.7684C15.8421 27.7684 16.334 27.4231 16.334 26.9275V16.8676C16.334 15.3501 17.4591 14.1484 18.8955 14.1321C19.6258 14.1157 20.316 14.4036 20.8326 14.9212C21.2596 15.3482 21.4673 15.9716 21.4673 16.8275V26.8375C21.4673 27.3 21.9386 27.7708 22.4006 27.7708H27.0672C27.5292 27.7708 28.0006 27.3 28.0006 26.8375V14.7929C28.0006 11.0796 25.1572 8.1709 21.528 8.1709Z" fill="#CDECE0"/>
</g>
<defs>
<clipPath id="clip0_3777_2309">
<rect width="28" height="28" fill="white"/>
</clipPath>
</defs>
</svg>
