<svg width="60" height="60" viewBox="0 0 60 60" fill="none" xmlns="http://www.w3.org/2000/svg">
<path d="M30 55C43.8071 55 55 43.8071 55 30C55 16.1929 43.8071 5 30 5C16.1929 5 5 16.1929 5 30C5 43.8071 16.1929 55 30 55Z" stroke="#FF6348" stroke-width="1.5" stroke-linecap="round" stroke-linejoin="round"/>
<path d="M18.8496 30C18.8496 37.6 20.0746 45.2 22.4996 52.5H19.9996" stroke="#FF6348" stroke-width="1.5" stroke-linecap="round" stroke-linejoin="round"/>
<path d="M20 7.5H22.5C21.275 11.15 20.375 14.875 19.75 18.65" stroke="#FF6348" stroke-width="1.5" stroke-linecap="round" stroke-linejoin="round"/>
<path d="M40.325 40.9C39.7 44.8 38.775 48.7 37.5 52.5" stroke="#FF6348" stroke-width="1.5" stroke-linecap="round" stroke-linejoin="round"/>
<path d="M37.5 7.5C39.925 14.8 41.15 22.4 41.15 30" stroke="#FF6348" stroke-width="1.5" stroke-linecap="round" stroke-linejoin="round"/>
<path d="M7.5 40V37.5C22.1 42.375 37.9 42.375 52.5 37.5V40" stroke="#FF6348" stroke-width="1.5" stroke-linecap="round" stroke-linejoin="round"/>
<path d="M7.5 22.5C22.1 17.625 37.9 17.625 52.5 22.5" stroke="#FF6348" stroke-width="1.5" stroke-linecap="round" stroke-linejoin="round"/>
</svg>
