<svg width="39" height="39" viewBox="0 0 39 39" fill="none" xmlns="http://www.w3.org/2000/svg">
<path d="M35.75 16.12V18.4437C35.75 20.5075 35.0675 22.2462 33.8488 23.4487C32.6463 24.6675 30.9075 25.35 28.8438 25.35V28.2912C28.8438 29.3962 27.6087 30.0625 26.6987 29.445L25.1225 28.405C25.2688 27.9012 25.3337 27.3487 25.3337 26.7637V20.15C25.3337 16.835 23.1238 14.625 19.8088 14.625H8.77499C8.54749 14.625 8.33625 14.6413 8.125 14.6575V10.1562C8.125 6.0125 10.8875 3.25 15.0312 3.25H28.8438C32.9875 3.25 35.75 6.0125 35.75 10.1562" stroke="url(#paint0_linear_3782_783)" stroke-width="1.5" stroke-miterlimit="10" stroke-linecap="round" stroke-linejoin="round"/>
<path d="M3.25 20.15C3.25 17.0625 5.1675 14.9338 8.125 14.6575C8.33625 14.6413 8.54749 14.625 8.77499 14.625H19.8088C23.1238 14.625 25.3337 16.835 25.3337 20.15V26.7637C25.3337 27.3487 25.2688 27.9012 25.1225 28.405C24.5213 30.7937 22.5388 32.2887 19.8088 32.2887H15.3888L10.4812 35.555C9.75 36.0588 8.77499 35.5225 8.77499 34.645V32.2887C7.11749 32.2887 5.73625 31.7363 4.7775 30.7775C3.8025 29.8025 3.25 28.4212 3.25 26.7637" stroke="url(#paint1_linear_3782_783)" stroke-width="1.5" stroke-miterlimit="10" stroke-linecap="round" stroke-linejoin="round"/>
<defs>
<linearGradient id="paint0_linear_3782_783" x1="21.9375" y1="3.25" x2="21.9375" y2="29.6812" gradientUnits="userSpaceOnUse">
<stop stop-color="white"/>
<stop offset="0.6" stop-color="#EAF3F8"/>
<stop offset="1" stop-color="#E9F1ED"/>
</linearGradient>
<linearGradient id="paint1_linear_3782_783" x1="14.2919" y1="14.625" x2="14.2919" y2="35.7494" gradientUnits="userSpaceOnUse">
<stop stop-color="white"/>
<stop offset="0.6" stop-color="#EAF3F8"/>
<stop offset="1" stop-color="#E9F1ED"/>
</linearGradient>
</defs>
</svg>
