<svg width="62" height="62" viewBox="0 0 62 62" fill="none" xmlns="http://www.w3.org/2000/svg">
<path d="M17.9292 24.335C15.8109 26.35 12.4784 26.3242 10.36 24.335C7.46671 21.5708 4.13421 17.1275 5.34838 11.8833C7.41505 2.94501 20.8742 2.94501 22.915 11.8833C23.225 13.1492 23.2509 14.3375 23.0959 15.5" stroke="#FF6348" stroke-width="1.5" stroke-linecap="round" stroke-linejoin="round"/>
<path d="M38.9303 42.8833C40.997 33.945 54.5337 33.945 56.6003 42.8833C57.8145 48.1275 54.482 52.5708 51.5628 55.335C49.4445 57.35 46.0862 57.3242 43.9678 55.335C41.0487 52.5708 37.7162 48.1275 38.9303 42.8833Z" stroke="#FF6348" stroke-width="1.5"/>
<path d="M30.9994 12.9167H37.9227C42.7019 12.9167 44.9236 18.8325 41.3327 21.9842L20.6919 40.0417C17.1011 43.1675 19.3227 49.0833 24.0761 49.0833H30.9994" stroke="#FF6348" stroke-width="1.5" stroke-linecap="round" stroke-linejoin="round"/>
<path d="M30.9994 12.9167H37.9227C42.7019 12.9167 44.9236 18.8325 41.3327 21.9842L20.6919 40.0417C17.1011 43.1675 19.3227 49.0833 24.0761 49.0833H30.9994" stroke="#FF6348" stroke-width="1.5" stroke-linecap="round" stroke-linejoin="round"/>
<path d="M14.1726 14.2083H14.2025" stroke="#FF6348" stroke-width="2" stroke-linecap="round" stroke-linejoin="round"/>
<path d="M47.7566 45.2083H47.7864" stroke="#FF6348" stroke-width="2" stroke-linecap="round" stroke-linejoin="round"/>
</svg>
