<svg width="64" height="64" viewBox="0 0 64 64" fill="none" xmlns="http://www.w3.org/2000/svg">
<path d="M56.8526 31.76C59.9726 28.64 58.9592 25.4933 54.6126 24.7466L47.8125 23.6267C46.6659 23.44 45.3058 22.4267 44.7992 21.3867L41.0393 13.8666C39.0126 9.78664 35.6792 9.78664 33.6525 13.8666L29.8925 21.3867C29.3859 22.4267 28.0258 23.4133 26.8792 23.6267L20.0792 24.7466C15.7325 25.4666 14.7192 28.6133 17.8392 31.76L23.1459 37.0666C24.0259 37.9466 24.5325 39.68 24.2392 40.9333L22.7192 47.4933C21.5192 52.6666 24.2926 54.6933 28.8526 51.9733L35.2259 48.1867C36.3725 47.4933 38.2926 47.4933 39.4392 48.1867L45.8125 51.9733C50.3725 54.6667 53.1459 52.6666 51.9459 47.4933L50.4259 40.9333" stroke="#FF6348" stroke-width="1.5" stroke-linecap="round" stroke-linejoin="round"/>
<path d="M21.334 13.3333H5.33398" stroke="#FF6348" stroke-width="1.5" stroke-linecap="round" stroke-linejoin="round"/>
<path d="M13.334 50.6667H5.33398" stroke="#FF6348" stroke-width="1.5" stroke-linecap="round" stroke-linejoin="round"/>
<path d="M8.00065 32H5.33398" stroke="#FF6348" stroke-width="1.5" stroke-linecap="round" stroke-linejoin="round"/>
</svg>
